<?xml version="1.0" encoding="UTF-8" standalone="no"?>
<svg
   xmlns:dc="http://purl.org/dc/elements/1.1/"
   xmlns:cc="http://creativecommons.org/ns#"
   xmlns:rdf="http://www.w3.org/1999/02/22-rdf-syntax-ns#"
   xmlns:svg="http://www.w3.org/2000/svg"
   xmlns="http://www.w3.org/2000/svg"
   xmlns:xlink="http://www.w3.org/1999/xlink"
   xml:space="preserve"
   viewBox="0 0 243 86"
   height="86px"
   width="243px"
   y="0px"
   x="0px"
   id="Layer_1"
   version="1.1"><metadata
   id="metadata171"><rdf:RDF><cc:Work
       rdf:about=""><dc:format>image/svg+xml</dc:format><dc:type
         rdf:resource="http://purl.org/dc/dcmitype/StillImage" /></cc:Work></rdf:RDF></metadata><defs
   id="defs169" />
<g
   id="g20">
	<defs
   id="defs3">
		<rect
   height="86"
   width="243"
   id="SVGID_1_" />
	</defs>
	<clipPath
   id="SVGID_2_">
		<use
   id="use5"
   overflow="visible"
   xlink:href="#SVGID_1_" />
	</clipPath>
	<path
   id="path8"
   d="M211.109,77.639c-0.326,0.093-0.812,0.207-1.457,0.341   c-0.97,0.187-1.468,0.518-1.494,0.993c-0.011,0.206,0.064,0.377,0.227,0.512c0.162,0.124,0.385,0.187,0.667,0.187   c0.57,0,1.04-0.178,1.409-0.536c0.185-0.181,0.336-0.397,0.45-0.651C211.026,78.23,211.093,77.948,211.109,77.639"
   fill="#FFFFFF"
   clip-path="url(#SVGID_2_)" />
	<path
   id="path10"
   d="M211.109,77.639   c-0.326,0.093-0.812,0.207-1.457,0.341c-0.97,0.187-1.468,0.518-1.494,0.993c-0.011,0.206,0.064,0.377,0.227,0.512   c0.162,0.124,0.385,0.187,0.667,0.187c0.57,0,1.04-0.178,1.409-0.536c0.185-0.181,0.336-0.397,0.45-0.651   C211.026,78.23,211.093,77.948,211.109,77.639z"
   stroke-miterlimit="3.864"
   stroke-width="0.298"
   stroke="#FFFFFF"
   fill="none"
   clip-path="url(#SVGID_2_)" />
	<path
   id="path12"
   d="M210.63,81.021l-0.064-0.776c-0.526,0.368-1.067,0.653-1.619,0.856   c-0.553,0.203-1.114,0.316-1.686,0.34c-0.93,0.038-1.655-0.142-2.175-0.542c-0.521-0.398-0.756-0.947-0.705-1.645   c0.068-0.945,0.466-1.669,1.194-2.171c0.728-0.502,1.933-0.863,3.616-1.086l0.517-0.06c1.2-0.15,1.815-0.432,1.845-0.844   c0.016-0.214-0.077-0.38-0.279-0.498c-0.093-0.058-0.212-0.099-0.358-0.126c-0.146-0.027-0.306-0.037-0.483-0.03   c-0.399,0.017-0.71,0.097-0.931,0.237c-0.222,0.142-0.359,0.355-0.414,0.643l-3.467,0.143c0.21-0.932,0.748-1.646,1.615-2.144   c0.867-0.498,2.071-0.778,3.612-0.842c1.433-0.06,2.509,0.117,3.227,0.531c0.719,0.412,1.047,1.043,0.986,1.892l-0.022,0.305   c-0.022,0.102-0.039,0.181-0.049,0.237c-0.008,0.111-0.024,0.221-0.05,0.328l-0.103,0.361l-0.742,3.017l-0.108,0.437l-0.036,0.26   c-0.012,0.167,0.003,0.317,0.045,0.449c0.041,0.134,0.112,0.428,0.212,0.535l-0.016,0.222L210.63,81.021z"
   fill="#E8501C"
   clip-path="url(#SVGID_2_)" />
	<path
   id="path14"
   d="M211.367,74.432c-0.649-0.065-1.337,0.524-1.573,1.319   c-0.237,0.798,0.052,1.569,0.679,1.729c0.667,0.169,1.452-0.414,1.712-1.309C212.442,75.281,212.057,74.502,211.367,74.432"
   fill="#1D1D1B"
   clip-path="url(#SVGID_2_)" />
	<path
   id="path16"
   d="M209.607,74.199c-0.395-0.177-1.027,0.153-1.422,0.72   c-0.387,0.556-0.424,1.166-0.075,1.382c0.363,0.226,1.016-0.057,1.449-0.651C210.003,75.043,210.021,74.384,209.607,74.199"
   fill="#1D1D1B"
   clip-path="url(#SVGID_2_)" />
	<path
   id="path18"
   d="M211.296,74.205c-0.649-0.066-1.338,0.524-1.573,1.318   c-0.237,0.799,0.052,1.57,0.679,1.729c0.667,0.171,1.451-0.412,1.712-1.309C212.37,75.054,211.985,74.275,211.296,74.205    M209.535,73.971c-0.394-0.176-1.026,0.154-1.422,0.72c-0.386,0.556-0.423,1.167-0.075,1.383c0.364,0.226,1.018-0.057,1.45-0.651   C209.932,74.815,209.949,74.156,209.535,73.971"
   fill="#FFFFFF"
   clip-path="url(#SVGID_2_)" />
</g>
<path
   id="path22"
   d="M208.151,77.13c0.1,0.05,0.214,0.097,0.338,0.137c0.492,0.161,0.956,0.164,1.036,0.007  c0.072-0.144-0.204-0.366-0.623-0.526L208.151,77.13z"
   fill="#FFFFFF" />
<g
   id="g50">
	<defs
   id="defs25">
		<rect
   height="86"
   width="243"
   id="SVGID_3_" />
	</defs>
	<clipPath
   id="SVGID_4_">
		<use
   id="use27"
   overflow="visible"
   xlink:href="#SVGID_3_" />
	</clipPath>
	<line
   id="line30"
   y2="75.972"
   x2="208.098"
   y1="76.031"
   x1="208.167"
   fill="#FAD486"
   clip-path="url(#SVGID_4_)" />
	<path
   id="path32"
   d="M208.779,76.696c-0.248-0.08-0.49-0.121-0.679-0.121   c-0.185,0-0.317,0.038-0.358,0.116c-0.065,0.129,0.147,0.325,0.496,0.48l0.723-0.409C208.903,76.739,208.841,76.718,208.779,76.696   "
   fill="#FFFFFF"
   clip-path="url(#SVGID_4_)" />
	<path
   id="path34"
   d="M209.097,75.214c-0.151-0.062-0.396,0.069-0.55,0.292   c-0.151,0.223-0.156,0.456-0.009,0.523c0.149,0.068,0.398-0.061,0.556-0.288C209.25,75.513,209.251,75.276,209.097,75.214"
   fill="#1C1E19"
   clip-path="url(#SVGID_4_)" />
	<path
   id="path36"
   d="M209.061,75.456c-0.03,0.062-0.107,0.072-0.174,0.077   c-0.065-0.018-0.093-0.08-0.063-0.139c0.03-0.061,0.107-0.096,0.174-0.079C209.063,75.333,209.091,75.396,209.061,75.456"
   fill="#FFFFFF"
   clip-path="url(#SVGID_4_)" />
	<path
   id="path38"
   d="M211.489,75.803c-0.285-0.073-0.654,0.157-0.833,0.515   c-0.178,0.356-0.102,0.717,0.177,0.805c0.284,0.09,0.67-0.138,0.854-0.51C211.872,76.239,211.78,75.877,211.489,75.803"
   fill="#1C1E19"
   clip-path="url(#SVGID_4_)" />
	<path
   id="path40"
   d="M208.818,73.52c-0.564,0.033-0.694,0.698-0.694,0.698s0.153-0.485,0.906-0.514   c0.752-0.026,1.189,0.204,1.189,0.204S209.68,73.469,208.818,73.52"
   fill="#1C1E19"
   clip-path="url(#SVGID_4_)" />
	<path
   id="path42"
   d="M212.197,74.054c0.501,0.237,0.319,0.892,0.319,0.892s0.079-0.5-0.596-0.8   c-0.675-0.301-1.179-0.25-1.179-0.25S211.435,73.692,212.197,74.054"
   fill="#1C1E19"
   clip-path="url(#SVGID_4_)" />
	<path
   id="path44"
   d="M207.506,78.065c-0.988-0.573-1.449-0.541-1.449-0.541s1.067,0.123,1.019,2.389   c-0.037,1.623,1.723,1.295,2.526-0.082c0.411-0.707,1.643-1.765,1.643-1.765S209.336,79.124,207.506,78.065"
   fill="#1C1E19"
   clip-path="url(#SVGID_4_)" />
	<path
   id="path46"
   d="M207.147,77.955c0,0-0.261,0.868,0.882,1.078   c1.145,0.209,2.523-0.575,2.523-0.575S208.617,79.018,207.147,77.955"
   fill="#FFFFFF"
   clip-path="url(#SVGID_4_)" />
	<path
   id="path48"
   d="M208.44,79.795c-0.425,0.14-0.572,0.4-0.572,0.4s-0.006-0.405,0.346-0.594   c0,0-0.921-0.129-0.973,0.492c-0.051,0.621,1.016,0.847,1.365,0.468C208.957,80.183,208.864,79.656,208.44,79.795"
   fill="#E52D2B"
   clip-path="url(#SVGID_4_)" />
</g>
<path
   id="path52"
   d="M207.771,80.265c-0.132-0.057-0.261-0.159-0.307-0.253l-0.041-0.015c-0.046,0.116-0.129,0.427,0.221,0.566  c0.307,0.121,0.515,0.095,0.611,0.033l0.056-0.109C208.246,80.379,207.934,80.335,207.771,80.265z"
   fill="#E0081B" />
<g
   id="g116">
	<defs
   id="defs55">
		<rect
   height="86"
   width="243"
   id="SVGID_5_" />
	</defs>
	<clipPath
   id="SVGID_6_">
		<use
   id="use57"
   overflow="visible"
   xlink:href="#SVGID_5_" />
	</clipPath>
	<path
   id="path60"
   d="M211.367,76.163c-0.02,0.065-0.094,0.09-0.158,0.106   c-0.067-0.007-0.105-0.063-0.087-0.127c0.02-0.063,0.091-0.111,0.158-0.106C211.348,76.042,211.387,76.099,211.367,76.163"
   fill="#FFFFFF"
   clip-path="url(#SVGID_6_)" />
	<path
   id="path62"
   d="M209.665,77.265c-0.059,0.205-0.536,0.252-1.067,0.104   c-0.53-0.147-0.913-0.434-0.854-0.64s0.536-0.253,1.067-0.104C209.341,76.772,209.724,77.059,209.665,77.265"
   fill="#FFFFFF"
   clip-path="url(#SVGID_6_)" />
	<path
   id="path64"
   d="M211.465,76.215c-0.053,0.101-0.192,0.155-0.315,0.123   c-0.123-0.035-0.176-0.146-0.127-0.246c0.047-0.101,0.188-0.157,0.312-0.125C211.461,76,211.518,76.107,211.465,76.215"
   fill="#FFFFFF"
   clip-path="url(#SVGID_6_)" />
	<path
   id="path66"
   d="M211.465,76.215   c-0.053,0.101-0.192,0.155-0.315,0.123c-0.123-0.035-0.176-0.146-0.127-0.246c0.047-0.101,0.188-0.157,0.312-0.125   C211.461,76,211.518,76.107,211.465,76.215z"
   stroke-miterlimit="3.864"
   stroke-width="0.124"
   stroke="#1D1D1B"
   fill="none"
   clip-path="url(#SVGID_6_)" />
	<path
   id="path68"
   d="M178.146,66.484l13.713-46.526h17.9l-1.713,6.121   c2.764-2.486,5.652-4.349,8.671-5.594c3.014-1.241,6.141-1.861,9.379-1.861c5.174,0,9.073,1.339,11.701,4.021   c2.632,2.684,3.642,6.307,3.028,10.875l-0.525,2.865l-0.854,3.255l-7.619,26.844h-19.623l7.449-26.281l0.435-1.5l0.17-0.899   c0.203-1.512-0.207-2.769-1.225-3.766c-1.018-0.998-2.448-1.497-4.282-1.497c-2.432,0-4.445,0.735-6.046,2.203   c-1.598,1.471-2.855,3.774-3.774,6.914l-7.161,24.826H178.146z M155.736,66.484l1.503-6.311c-2.513,2.458-5.327,4.355-8.45,5.698   c-3.123,1.345-6.32,2.014-9.59,2.014c-5.357,0-9.334-1.398-11.936-4.194c-2.601-2.797-3.566-6.689-2.892-11.685l0.122-0.924   c0.037-0.299,0.118-0.66,0.24-1.089l0.519-2.141l8.135-27.915h19.623l-7.26,24.88l-0.448,1.587l-0.271,1.672   c-0.23,1.712,0.142,3.06,1.115,4.045c0.974,0.983,2.458,1.477,4.452,1.477c2.397,0,4.364-0.663,5.896-1.988   c1.533-1.329,2.743-3.449,3.632-6.363l7.507-25.309h19.528l-13.625,46.546H155.736z M115.261,66.411l-5.768,0.514l-5.256,0.171   c-4.672,0-8.182-0.942-10.528-2.826c-2.35-1.885-3.293-4.54-2.832-7.965l0.431-2.188l0.814-2.954l6.103-20.877l-7.249-0.007   l3.119-10.344h7.155l4.744-16.474h19.029l-4.774,16.48l7.738-0.002l-3.031,10.34l-7.738,0.003l-5.266,17.972l-0.159,0.511   l-0.109,0.809c-0.166,1.226,0.136,2.121,0.899,2.69c0.831,0.541,2.211,0.813,4.143,0.813l1.445,0.014l0.946-0.104L115.261,66.411z    M58.451,66.484L76.292,3.46h19.532L78.074,66.484H58.451z"
   fill="#E8501C"
   clip-path="url(#SVGID_6_)" />
	<path
   id="path70"
   d="M160.992,77.497c-0.62,0.012-1.143,0.073-1.577,0.182   c-0.434,0.108-0.756,0.251-0.973,0.428c-0.217,0.174-0.369,0.354-0.454,0.537c-0.092,0.183-0.132,0.38-0.132,0.588   c0,0.262,0.07,0.474,0.213,0.633c0.14,0.158,0.336,0.237,0.59,0.237c0.438,0,0.854-0.235,1.255-0.707   C160.311,78.922,160.67,78.287,160.992,77.497 M162.186,75.668c0,0.366-0.074,0.807-0.224,1.319   c-0.148,0.515-0.346,1.01-0.59,1.485c-0.813,1.563-1.753,2.345-2.817,2.345c-0.506,0-0.885-0.146-1.129-0.438   c-0.248-0.292-0.373-0.638-0.373-1.045c0-0.245,0.037-0.475,0.108-0.691c0.078-0.219,0.213-0.438,0.403-0.66   c0.193-0.222,0.44-0.415,0.739-0.576c0.302-0.162,0.702-0.298,1.196-0.406c0.498-0.109,1.072-0.174,1.713-0.195   c0.048-0.119,0.092-0.295,0.132-0.521c0.045-0.224,0.064-0.396,0.064-0.505c0-0.614-0.245-0.919-0.726-0.919   c-0.586,0-1.285,0.432-2.092,1.297l-0.214-0.744c0.848-0.858,1.672-1.287,2.479-1.287c0.421,0,0.746,0.129,0.976,0.387   C162.07,74.772,162.186,75.154,162.186,75.668"
   fill="#1D1D1B"
   clip-path="url(#SVGID_6_)" />
	<polygon
   id="polygon72"
   points="166.228,72.526 162.657,80.643 161.823,80.643 165.397,72.526  "
   fill="#1D1D1B"
   clip-path="url(#SVGID_6_)" />
	<polygon
   id="polygon74"
   points="168.001,74.271 165.2,80.643 164.37,80.643 167.171,74.271  "
   fill="#1D1D1B"
   clip-path="url(#SVGID_6_)" />
	<path
   id="path76"
   d="M169.053,80.945l0.349,0.559c-0.142,0.298-0.355,0.539-0.641,0.727   c-0.282,0.186-0.58,0.29-0.882,0.309l-0.346-0.54c0.343-0.019,0.642-0.124,0.902-0.311   C168.645,81.546,168.853,81.299,169.053,80.945 M172.416,75.454c0,0.197-0.021,0.389-0.067,0.57l-0.736,0.193   c0.064-0.207,0.096-0.382,0.096-0.526c0-0.277-0.078-0.488-0.234-0.639c-0.156-0.151-0.363-0.229-0.617-0.229   c-0.414,0-0.726,0.128-0.929,0.38c-0.207,0.251-0.309,0.538-0.309,0.861c0,0.191,0.047,0.371,0.146,0.546   c0.095,0.17,0.213,0.324,0.356,0.458c0.135,0.136,0.271,0.278,0.41,0.422c0.136,0.146,0.251,0.32,0.349,0.529   c0.099,0.206,0.143,0.436,0.143,0.687c0,0.2-0.041,0.417-0.122,0.647c-0.085,0.232-0.214,0.46-0.381,0.682   c-0.168,0.223-0.402,0.409-0.704,0.551c-0.302,0.147-0.645,0.219-1.031,0.219c-0.559,0-0.977-0.141-1.247-0.42   c-0.271-0.281-0.407-0.615-0.407-1c0-0.244,0.041-0.458,0.126-0.64l0.698-0.195c-0.078,0.226-0.115,0.419-0.115,0.582   c0,0.29,0.088,0.529,0.261,0.709c0.173,0.187,0.447,0.276,0.813,0.276c0.38,0,0.699-0.124,0.95-0.375   c0.258-0.253,0.386-0.544,0.386-0.884c0-0.353-0.148-0.694-0.447-1.025c-0.058-0.063-0.143-0.151-0.258-0.268   c-0.149-0.147-0.268-0.271-0.346-0.368c-0.078-0.099-0.159-0.241-0.237-0.433c-0.078-0.188-0.115-0.394-0.115-0.606   c0-0.524,0.187-0.99,0.56-1.407c0.376-0.416,0.896-0.624,1.56-0.624c0.461,0,0.817,0.127,1.071,0.38   C172.291,74.765,172.416,75.078,172.416,75.454"
   fill="#1D1D1B"
   clip-path="url(#SVGID_6_)" />
	<polygon
   id="polygon78"
   points="177.566,74.678 173.355,80.643 172.684,80.643 173.437,74.271    174.196,74.271 173.556,79.284 176.658,74.678 176.933,74.271 177.119,73.989 177.303,74.271  "
   fill="#1D1D1B"
   clip-path="url(#SVGID_6_)" />
	<path
   id="path80"
   d="M181.582,75.53c0-0.471-0.229-0.707-0.686-0.707   c-0.434,0-0.898,0.232-1.394,0.688c-0.502,0.459-0.949,1.115-1.35,1.966c0.621-0.045,1.187-0.147,1.695-0.305   c0.505-0.156,0.923-0.382,1.248-0.668C181.422,76.219,181.582,75.892,181.582,75.53 M182.375,75.364   c0,0.763-0.396,1.405-1.188,1.928c-0.793,0.524-1.885,0.813-3.274,0.873c-0.096,0.271-0.146,0.558-0.146,0.861   c0,0.686,0.278,1.027,0.834,1.027c0.665,0,1.418-0.47,2.266-1.408l0.271,0.629c-0.953,1.021-1.855,1.532-2.7,1.532   c-0.484,0-0.857-0.144-1.111-0.433c-0.254-0.288-0.38-0.685-0.38-1.191c0-0.848,0.309-1.762,0.922-2.743   c0.425-0.67,0.916-1.225,1.465-1.658c0.554-0.438,1.133-0.654,1.747-0.654c0.454,0,0.779,0.124,0.986,0.369   C182.273,74.747,182.375,75.035,182.375,75.364"
   fill="#1D1D1B"
   clip-path="url(#SVGID_6_)" />
	<path
   id="path82"
   d="M187.119,74.232l-0.339,0.735c-0.099-0.032-0.207-0.049-0.329-0.049   c-0.322,0-0.614,0.069-0.872,0.205c-0.261,0.134-0.502,0.353-0.729,0.649c-0.229,0.295-0.427,0.604-0.596,0.927   c-0.166,0.324-0.366,0.746-0.598,1.271l-1.166,2.671h-0.831l2.798-6.371h0.824l-0.417,0.959h0.021   c0.535-0.702,1.146-1.053,1.827-1.053C186.861,74.178,186.997,74.194,187.119,74.232"
   fill="#1D1D1B"
   clip-path="url(#SVGID_6_)" />
	<path
   id="path84"
   d="M189.655,72.524l-0.336,0.79h-0.834l0.336-0.79H189.655z M188.899,74.271   l-2.798,6.371h-0.831l2.798-6.371H188.899z"
   fill="#1D1D1B"
   clip-path="url(#SVGID_6_)" />
	<path
   id="path86"
   d="M189.953,80.945l0.347,0.559c-0.143,0.298-0.356,0.539-0.638,0.727   c-0.285,0.186-0.58,0.29-0.882,0.309l-0.35-0.54c0.347-0.019,0.645-0.124,0.902-0.311C189.547,81.546,189.75,81.299,189.953,80.945    M193.317,75.454c0,0.197-0.023,0.389-0.068,0.57l-0.735,0.193c0.064-0.207,0.095-0.382,0.095-0.526   c0-0.277-0.078-0.488-0.237-0.639c-0.152-0.151-0.359-0.229-0.613-0.229c-0.414,0-0.726,0.128-0.93,0.38   c-0.207,0.251-0.312,0.538-0.312,0.861c0,0.191,0.051,0.371,0.146,0.546c0.099,0.17,0.217,0.324,0.356,0.458   c0.139,0.136,0.274,0.278,0.41,0.422c0.136,0.146,0.254,0.32,0.35,0.529c0.098,0.206,0.146,0.436,0.146,0.687   c0,0.2-0.041,0.417-0.126,0.647c-0.084,0.232-0.209,0.46-0.38,0.682c-0.169,0.223-0.403,0.409-0.701,0.551   c-0.302,0.147-0.645,0.219-1.034,0.219c-0.56,0-0.977-0.141-1.245-0.42c-0.271-0.281-0.406-0.615-0.406-1   c0-0.244,0.04-0.458,0.122-0.64l0.698-0.195c-0.074,0.226-0.112,0.419-0.112,0.582c0,0.29,0.085,0.529,0.258,0.709   c0.173,0.187,0.444,0.276,0.817,0.276c0.38,0,0.695-0.124,0.949-0.375c0.255-0.253,0.384-0.544,0.384-0.884   c0-0.353-0.149-0.694-0.448-1.025c-0.054-0.063-0.143-0.151-0.258-0.268c-0.148-0.147-0.264-0.271-0.342-0.368   c-0.082-0.099-0.159-0.241-0.237-0.433c-0.078-0.188-0.119-0.394-0.119-0.606c0-0.524,0.19-0.99,0.563-1.407   c0.376-0.416,0.895-0.624,1.556-0.624c0.461,0,0.817,0.127,1.072,0.38C193.191,74.765,193.317,75.078,193.317,75.454"
   fill="#1D1D1B"
   clip-path="url(#SVGID_6_)" />
	<path
   id="path88"
   d="M196.892,72.524l-0.34,0.79h-0.83l0.335-0.79H196.892z M196.135,74.271   l-2.797,6.371h-0.831l2.798-6.371H196.135z"
   fill="#1D1D1B"
   clip-path="url(#SVGID_6_)" />
	<path
   id="path90"
   d="M200.937,75.53c0,0.343-0.152,0.858-0.454,1.552l-1.567,3.561h-0.834   l1.791-4.058c0.176-0.413,0.264-0.729,0.264-0.947c0-0.524-0.268-0.787-0.804-0.787c-0.362,0-0.657,0.114-0.881,0.345   c-0.228,0.229-0.417,0.527-0.58,0.897l-1.987,4.55h-0.834l2.015-4.569c0.125-0.281,0.244-0.521,0.355-0.714   c0.112-0.191,0.262-0.391,0.448-0.602c0.189-0.209,0.413-0.366,0.678-0.472c0.268-0.105,0.569-0.159,0.911-0.159   c0.503,0,0.875,0.134,1.12,0.401C200.817,74.795,200.937,75.129,200.937,75.53"
   fill="#1D1D1B"
   clip-path="url(#SVGID_6_)" />
	<path
   id="path92"
   d="M205.08,74.827h-0.407v-0.729l0.407-0.68V74.827z M204.473,74.827h-0.406   v-0.729l0.406-0.68V74.827z"
   fill="#1D1D1B"
   clip-path="url(#SVGID_6_)" />
	<path
   id="path94"
   d="M216.304,73.418h0.407v0.729l-0.407,0.68V73.418z M215.696,73.418h0.407v0.729   l-0.407,0.68V73.418z"
   fill="#1D1D1B"
   clip-path="url(#SVGID_6_)" />
	<path
   id="path96"
   d="M222.17,75.454c0,0.197-0.021,0.389-0.068,0.57l-0.732,0.193   c0.064-0.207,0.092-0.382,0.092-0.526c0-0.277-0.074-0.488-0.233-0.639c-0.156-0.151-0.36-0.229-0.617-0.229   c-0.414,0-0.723,0.128-0.93,0.38c-0.207,0.251-0.309,0.538-0.309,0.861c0,0.191,0.051,0.371,0.146,0.546   c0.098,0.17,0.217,0.324,0.355,0.458c0.139,0.136,0.274,0.278,0.41,0.422c0.136,0.146,0.251,0.32,0.346,0.529   c0.103,0.206,0.149,0.436,0.149,0.687c0,0.2-0.044,0.417-0.125,0.647c-0.082,0.232-0.21,0.46-0.381,0.682   c-0.169,0.223-0.402,0.409-0.701,0.551c-0.302,0.147-0.647,0.219-1.03,0.219c-0.563,0-0.98-0.141-1.252-0.42   c-0.268-0.281-0.403-0.615-0.403-1c0-0.244,0.041-0.458,0.122-0.64l0.698-0.195c-0.077,0.226-0.111,0.419-0.111,0.582   c0,0.29,0.085,0.529,0.258,0.709c0.173,0.187,0.444,0.276,0.817,0.276c0.379,0,0.694-0.124,0.949-0.375   c0.254-0.253,0.383-0.544,0.383-0.884c0-0.353-0.149-0.694-0.447-1.025c-0.058-0.063-0.143-0.151-0.258-0.268   c-0.149-0.147-0.265-0.271-0.343-0.368c-0.081-0.099-0.163-0.241-0.237-0.433c-0.081-0.188-0.118-0.394-0.118-0.606   c0-0.524,0.187-0.99,0.566-1.407c0.369-0.416,0.892-0.624,1.556-0.624c0.455,0,0.814,0.127,1.068,0.38   C222.044,74.765,222.17,75.078,222.17,75.454"
   fill="#1D1D1B"
   clip-path="url(#SVGID_6_)" />
	<polygon
   id="polygon98"
   points="224.991,74.271 222.193,80.643 221.359,80.643 224.16,74.271  "
   fill="#1D1D1B"
   clip-path="url(#SVGID_6_)" />
	
		<line
   id="line100"
   y2="80.102"
   x2="240.953"
   y1="80.102"
   x1="225.514"
   stroke-width="0.283"
   stroke="#1D1D1B"
   fill="none"
   clip-path="url(#SVGID_6_)" />
	
		<line
   id="line102"
   y2="80.102"
   x2="154.015"
   y1="80.102"
   x1="2"
   stroke-width="0.283"
   stroke="#1D1D1B"
   fill="none"
   clip-path="url(#SVGID_6_)" />
	<path
   id="path104"
   d="M39.513,46.904c-1.813,0.518-4.512,1.151-8.092,1.896   c-5.387,1.035-8.154,2.87-8.296,5.512c-0.06,1.148,0.355,2.096,1.257,2.846c0.902,0.688,2.134,1.031,3.705,1.031   c3.165,0,5.772-0.991,7.826-2.974c1.023-1.005,1.857-2.21,2.499-3.617C39.05,50.191,39.422,48.626,39.513,46.904"
   fill="#FFFFFF"
   clip-path="url(#SVGID_6_)" />
	<path
   id="path106"
   d="M39.513,46.904   c-1.813,0.518-4.512,1.151-8.092,1.896c-5.387,1.035-8.154,2.87-8.296,5.512c-0.06,1.148,0.355,2.096,1.257,2.846   c0.902,0.688,2.134,1.031,3.705,1.031c3.165,0,5.772-0.991,7.826-2.974c1.023-1.005,1.857-2.21,2.499-3.617   C39.05,50.191,39.422,48.626,39.513,46.904z"
   stroke-miterlimit="3.864"
   stroke-width="0.298"
   stroke="#FFFFFF"
   fill="none"
   clip-path="url(#SVGID_6_)" />
	<path
   id="path108"
   d="M36.849,65.694l-0.355-4.313c-2.925,2.041-5.927,3.625-8.994,4.755   c-3.07,1.13-6.188,1.759-9.359,1.889c-5.165,0.212-9.194-0.789-12.082-3.008c-2.891-2.22-4.194-5.263-3.914-9.133   c0.382-5.25,2.591-9.271,6.633-12.06c4.04-2.788,10.734-4.796,20.083-6.029l2.871-0.329c6.663-0.838,10.078-2.4,10.244-4.69   c0.088-1.186-0.429-2.106-1.55-2.764c-0.517-0.318-1.179-0.551-1.99-0.701c-0.811-0.149-1.706-0.204-2.688-0.166   c-2.219,0.093-3.942,0.534-5.168,1.316c-1.229,0.787-1.993,1.976-2.3,3.568L9.028,34.826c1.166-5.176,4.154-9.149,8.971-11.909   c4.816-2.762,11.5-4.32,20.062-4.675c7.955-0.329,13.929,0.654,17.918,2.951c3.992,2.293,5.812,5.795,5.475,10.505l-0.125,1.692   c-0.125,0.566-0.216,1.007-0.267,1.319c-0.044,0.62-0.138,1.228-0.277,1.824l-0.574,2.006l-4.117,16.749l-0.605,2.427l-0.199,1.44   c-0.067,0.931,0.014,1.766,0.246,2.5c0.23,0.738,0.625,2.374,1.179,2.967l-0.088,1.231L36.849,65.694z"
   fill="#E8501C"
   clip-path="url(#SVGID_6_)" />
	<path
   id="path110"
   d="M40.942,29.098c-3.604-0.363-7.424,2.913-8.734,7.328   c-1.317,4.431,0.287,8.713,3.769,9.6c3.705,0.941,8.062-2.297,9.508-7.266C46.914,33.813,44.775,29.49,40.942,29.098"
   fill="#1D1D1B"
   clip-path="url(#SVGID_6_)" />
	<path
   id="path112"
   d="M31.171,27.806c-2.188-0.984-5.705,0.85-7.896,3.996   c-2.149,3.085-2.352,6.476-0.416,7.673c2.016,1.255,5.637-0.312,8.049-3.613C33.37,32.491,33.464,28.831,31.171,27.806"
   fill="#1D1D1B"
   clip-path="url(#SVGID_6_)" />
	<path
   id="path114"
   d="M40.546,27.837c-3.604-0.368-7.43,2.913-8.734,7.323   c-1.317,4.433,0.284,8.719,3.766,9.6c3.705,0.945,8.062-2.293,9.508-7.268C46.516,32.55,44.376,28.228,40.546,27.837    M30.772,26.538c-2.189-0.979-5.705,0.854-7.897,3.997c-2.145,3.087-2.351,6.48-0.418,7.677c2.019,1.253,5.643-0.314,8.051-3.615   C32.967,31.229,33.068,27.57,30.772,26.538"
   fill="#FFFFFF"
   clip-path="url(#SVGID_6_)" />
</g>
<path
   id="path118"
   d="M23.08,44.084c0.555,0.275,1.187,0.535,1.876,0.76c2.736,0.893,5.313,0.905,5.759,0.03  c0.405-0.796-1.1-2.044-3.424-2.938L23.08,44.084z"
   fill="#FFFFFF" />
<g
   id="g146">
	<defs
   id="defs121">
		<rect
   height="86"
   width="243"
   id="SVGID_7_" />
	</defs>
	<clipPath
   id="SVGID_8_">
		<use
   id="use123"
   overflow="visible"
   xlink:href="#SVGID_7_" />
	</clipPath>
	<line
   id="line126"
   y2="37.647"
   x2="22.785"
   y1="37.98"
   x1="23.173"
   fill="#FAD486"
   clip-path="url(#SVGID_8_)" />
	<path
   id="path128"
   d="M26.574,41.674c-1.381-0.448-2.726-0.675-3.773-0.675   c-1.023,0-1.763,0.216-1.986,0.65c-0.368,0.715,0.814,1.803,2.753,2.665l4.012-2.27C27.26,41.912,26.922,41.792,26.574,41.674"
   fill="#FFFFFF"
   clip-path="url(#SVGID_8_)" />
	<path
   id="path130"
   d="M28.337,33.441c-0.844-0.345-2.206,0.385-3.053,1.623   c-0.841,1.232-0.871,2.528-0.051,2.903c0.828,0.38,2.212-0.333,3.084-1.598C29.188,35.102,29.192,33.788,28.337,33.441"
   fill="#1C1E19"
   clip-path="url(#SVGID_8_)" />
	<path
   id="path132"
   d="M28.134,34.784c-0.168,0.336-0.594,0.402-0.966,0.429   c-0.361-0.098-0.516-0.446-0.351-0.777c0.166-0.329,0.598-0.522,0.963-0.431C28.145,34.1,28.303,34.451,28.134,34.784"
   fill="#FFFFFF"
   clip-path="url(#SVGID_8_)" />
	<path
   id="path134"
   d="M41.621,36.712c-1.581-0.407-3.634,0.873-4.624,2.854   c-0.99,1.981-0.567,3.982,0.979,4.47c1.581,0.5,3.723-0.763,4.749-2.83C43.748,39.141,43.239,37.125,41.621,36.712"
   fill="#1C1E19"
   clip-path="url(#SVGID_8_)" />
	<path
   id="path136"
   d="M26.79,24.033c-3.134,0.184-3.857,3.874-3.857,3.874s0.851-2.695,5.033-2.849   c4.178-0.149,6.606,1.13,6.606,1.13S31.573,23.749,26.79,24.033"
   fill="#1C1E19"
   clip-path="url(#SVGID_8_)" />
	<path
   id="path138"
   d="M45.556,26.997c2.783,1.319,1.773,4.953,1.773,4.953s0.439-2.776-3.31-4.441   c-3.749-1.671-6.546-1.39-6.546-1.39S41.317,24.989,45.556,26.997"
   fill="#1C1E19"
   clip-path="url(#SVGID_8_)" />
	<path
   id="path140"
   d="M19.501,49.274c-5.488-3.18-8.048-3.002-8.048-3.002s5.927,0.681,5.653,13.265   c-0.202,9.012,9.569,7.189,14.031-0.457c2.286-3.923,9.126-9.799,9.126-9.799S29.662,55.157,19.501,49.274"
   fill="#1C1E19"
   clip-path="url(#SVGID_8_)" />
	<path
   id="path142"
   d="M17.512,48.662c0,0-1.452,4.824,4.897,5.986   c6.353,1.165,14.01-3.193,14.01-3.193S25.672,54.561,17.512,48.662"
   fill="#FFFFFF"
   clip-path="url(#SVGID_8_)" />
	<path
   id="path144"
   d="M24.689,58.882c-2.357,0.773-3.175,2.223-3.175,2.223s-0.037-2.253,1.919-3.296   c0,0-5.114-0.715-5.401,2.732c-0.284,3.448,5.637,4.704,7.582,2.599C27.561,61.035,27.043,58.108,24.689,58.882"
   fill="#E52D2B"
   clip-path="url(#SVGID_8_)" />
</g>
<path
   id="path148"
   d="M20.977,61.494c-0.736-0.319-1.479-0.9-1.729-1.419L19.04,60c-0.254,0.655-0.702,2.385,1.235,3.149  c1.596,0.631,2.773,0.557,3.357,0.264l0.349-0.689C23.609,62.12,21.878,61.883,20.977,61.494z"
   fill="#E0081B" />
<g
   id="g164">
	<defs
   id="defs151">
		<rect
   height="86"
   width="243"
   id="SVGID_9_" />
	</defs>
	<clipPath
   id="SVGID_10_">
		<use
   id="use153"
   overflow="visible"
   xlink:href="#SVGID_9_" />
	</clipPath>
	<path
   id="path156"
   d="M40.943,38.713c-0.108,0.36-0.517,0.498-0.878,0.588   c-0.372-0.035-0.585-0.351-0.479-0.705c0.107-0.353,0.5-0.617,0.875-0.59C40.836,38.037,41.053,38.357,40.943,38.713"
   fill="#FFFFFF"
   clip-path="url(#SVGID_10_)" />
	<path
   id="path158"
   d="M31.493,44.829c-0.326,1.142-2.98,1.401-5.928,0.579   c-2.948-0.822-5.073-2.414-4.747-3.557c0.325-1.142,2.98-1.401,5.928-0.579C29.694,42.094,31.819,43.687,31.493,44.829"
   fill="#FFFFFF"
   clip-path="url(#SVGID_10_)" />
	<path
   id="path160"
   d="M41.488,39c-0.293,0.56-1.072,0.864-1.752,0.682   c-0.682-0.196-0.975-0.805-0.707-1.364c0.268-0.56,1.047-0.876,1.729-0.694C41.463,37.807,41.78,38.402,41.488,39"
   fill="#FFFFFF"
   clip-path="url(#SVGID_10_)" />
	<path
   id="path162"
   d="M41.488,39   c-0.293,0.56-1.072,0.864-1.752,0.682c-0.682-0.196-0.975-0.805-0.707-1.364c0.268-0.56,1.047-0.876,1.729-0.694   C41.463,37.807,41.78,38.402,41.488,39z"
   stroke-miterlimit="3.864"
   stroke-width="0.124"
   stroke="#1D1D1B"
   fill="none"
   clip-path="url(#SVGID_10_)" />
</g>
</svg>